<svg width="377" height="817" viewBox="0 0 377 817" fill="none" xmlns="http://www.w3.org/2000/svg">
<path d="M376.595 0H0V816.285H376.595V0Z" fill="#2D2359"/>
<path fill-rule="evenodd" clip-rule="evenodd" d="M359.912 234C360.526 234.373 361.256 234.962 362.102 235.767C364.86 238.579 367.435 241.565 369.81 244.707C371.557 246.973 373.915 249.491 376.884 252.259V260.013C372.134 257.089 368.234 254.086 365.185 251.003C360.028 245.912 357.13 241.802 356.491 238.672C356.151 237.715 356.043 236.69 356.176 235.682C356.237 235.143 356.478 234.639 356.86 234.254C356.952 234.161 357.051 234.076 357.156 234L359.912 234ZM376.884 307.049V315.527C374.72 317.804 372.932 319.904 371.521 321.829C368.299 326.224 365.872 329.324 364.24 331.128C362.494 332.854 361.274 333.644 360.578 333.497C360.014 333.453 359.484 333.211 359.08 332.816C358.675 332.42 358.423 331.895 358.366 331.332C358.146 330.355 358.18 329.339 358.466 328.379L358.462 328.38C359.058 325.227 361.77 321.023 366.598 315.768C369.317 312.829 372.746 309.923 376.884 307.049ZM376.884 291.159V295.909C367.09 300.357 359.74 304.34 354.835 307.859C349.797 311.541 346.078 314.081 343.68 315.479C341.223 316.838 339.62 317.362 338.871 317.051C338.297 316.927 337.796 316.58 337.478 316.087C337.159 315.594 337.05 314.996 337.172 314.422C337.263 313.41 337.612 312.439 338.187 311.601L338.186 311.596C339.908 308.635 344.382 305.068 351.609 300.893C357.973 297.117 366.398 293.873 376.884 291.159ZM376.884 280.878V283.883C369.322 284.279 362.975 284.695 357.841 285.132C346.158 286.172 338.341 286.453 334.388 285.976C331.252 285.545 328.152 284.887 325.111 284.007C322.887 283.218 321.514 282.202 320.993 280.958C320.539 279.678 322.416 278.609 326.623 277.753V277.747C330.723 276.985 336.163 276.985 342.942 277.747C350.676 278.583 356.915 279.305 361.658 279.912C365.841 280.354 370.916 280.676 376.884 280.878ZM376.884 270.778V275.244C366.105 272.947 357.359 270.025 350.646 266.477C343.369 262.561 338.765 259.154 336.833 256.257L336.836 256.258C336.22 255.463 335.808 254.529 335.637 253.538C335.523 252.074 336.042 251.175 337.196 250.842C337.995 250.475 339.661 250.918 342.192 252.17C346.154 254.361 349.998 256.756 353.709 259.348C358.887 262.774 366.612 266.584 376.884 270.778Z" fill="#F48337"/>
<path d="M361.376 192.284C361.123 192.421 360.901 192.608 360.723 192.833C360.545 193.059 360.415 193.319 360.341 193.597C360.263 193.873 360.24 194.161 360.275 194.446C360.309 194.73 360.4 195.005 360.542 195.254C360.684 195.503 360.874 195.722 361.101 195.897C361.328 196.072 361.587 196.2 361.864 196.274C362.278 196.388 362.716 196.377 363.124 196.242C363.531 196.107 363.89 195.854 364.154 195.515C364.418 195.177 364.575 194.768 364.607 194.34C364.639 193.911 364.543 193.483 364.331 193.11C364.197 192.858 364.013 192.636 363.789 192.46C363.565 192.283 363.307 192.155 363.031 192.083C362.755 192.004 362.467 191.981 362.182 192.015C361.897 192.05 361.622 192.141 361.373 192.283" fill="#DE2B5B"/>
<path d="M352.505 195.548C352.427 195.823 352.404 196.112 352.438 196.397C352.472 196.681 352.563 196.956 352.705 197.206C352.993 197.707 353.468 198.073 354.026 198.225C354.299 198.31 354.586 198.336 354.87 198.3C355.153 198.263 355.425 198.166 355.667 198.015C355.919 197.881 356.141 197.697 356.318 197.473C356.495 197.249 356.623 196.991 356.695 196.715C356.777 196.439 356.801 196.15 356.767 195.865C356.733 195.58 356.64 195.305 356.495 195.057C356.361 194.805 356.177 194.583 355.953 194.406C355.729 194.23 355.471 194.101 355.195 194.03C354.919 193.951 354.631 193.928 354.346 193.962C354.061 193.997 353.786 194.088 353.537 194.23C353.284 194.366 353.062 194.553 352.884 194.779C352.706 195.005 352.576 195.265 352.502 195.543" fill="#DE2B5B"/>
<path d="M350.852 201.792C350.436 201.065 349.75 200.533 348.942 200.31C348.135 200.088 347.273 200.194 346.543 200.605C346.173 200.797 345.847 201.066 345.589 201.394C345.33 201.721 345.144 202.1 345.043 202.505C344.926 202.904 344.892 203.323 344.943 203.735C344.993 204.148 345.127 204.546 345.337 204.905C345.54 205.267 345.812 205.585 346.138 205.842C346.464 206.098 346.838 206.288 347.237 206.399C347.637 206.511 348.055 206.542 348.467 206.492C348.878 206.441 349.276 206.31 349.637 206.105C350.007 205.912 350.333 205.643 350.591 205.316C350.85 204.988 351.036 204.61 351.137 204.205C351.257 203.804 351.293 203.383 351.244 202.968C351.195 202.552 351.061 202.152 350.851 201.79" fill="#DE2B5B"/>
<path d="M354.808 210.461C355.582 211.816 356.738 212.913 358.133 213.613C359.528 214.313 361.099 214.585 362.648 214.396C364.197 214.207 365.655 213.564 366.84 212.548C368.025 211.533 368.884 210.19 369.308 208.688C369.591 207.688 369.669 206.641 369.538 205.61C369.406 204.579 369.068 203.585 368.543 202.688C368.034 201.783 367.352 200.988 366.535 200.347C365.718 199.706 364.783 199.233 363.783 198.955C362.783 198.676 361.738 198.597 360.708 198.723C359.677 198.849 358.682 199.177 357.779 199.689C356.875 200.2 356.082 200.884 355.443 201.703C354.805 202.521 354.334 203.458 354.058 204.458C353.782 205.459 353.706 206.504 353.835 207.534C353.964 208.564 354.294 209.559 354.808 210.461Z" fill="#DE2B5B"/>
<path d="M344.131 343.926C344.26 344.331 344.47 344.707 344.748 345.028C345.027 345.35 345.367 345.613 345.75 345.799C346.126 345.995 346.538 346.112 346.961 346.142C347.384 346.172 347.809 346.115 348.209 345.975C348.612 345.842 348.985 345.63 349.307 345.352C349.628 345.074 349.891 344.735 350.081 344.355C350.271 343.975 350.384 343.562 350.414 343.138C350.444 342.714 350.389 342.289 350.254 341.886C350.126 341.482 349.917 341.108 349.639 340.788C349.362 340.468 349.021 340.208 348.639 340.025C348.26 339.83 347.846 339.715 347.421 339.685C346.997 339.655 346.57 339.712 346.168 339.852C345.359 340.123 344.69 340.704 344.308 341.468C343.926 342.231 343.862 343.115 344.13 343.926" fill="#4C9ACC"/>
<path d="M352.15 353.696L352.127 353.742C351.352 355.344 351.232 357.186 351.795 358.875C352.358 360.563 353.557 361.966 355.139 362.783L355.185 362.806C355.977 363.199 356.839 363.43 357.721 363.487C358.604 363.543 359.488 363.424 360.324 363.136C361.172 362.872 361.957 362.437 362.631 361.859C363.305 361.281 363.854 360.572 364.245 359.775V359.748C365.02 358.146 365.14 356.304 364.577 354.615C364.014 352.927 362.814 351.525 361.233 350.708L361.217 350.7C360.427 350.293 359.562 350.051 358.675 349.991C357.788 349.931 356.898 350.054 356.06 350.351C355.22 350.624 354.442 351.06 353.77 351.634C353.098 352.208 352.546 352.908 352.146 353.696M356.218 360.673C355.441 360.286 354.796 359.678 354.367 358.924C353.937 358.17 353.741 357.305 353.805 356.439C353.868 355.574 354.188 354.746 354.723 354.063C355.258 353.38 355.985 352.872 356.81 352.603C357.35 352.41 357.924 352.33 358.496 352.368C359.068 352.406 359.627 352.56 360.137 352.822C360.653 353.08 361.113 353.438 361.489 353.876C361.865 354.314 362.149 354.822 362.326 355.372C362.511 355.918 362.587 356.495 362.548 357.071C362.51 357.646 362.359 358.208 362.103 358.725C361.849 359.237 361.494 359.693 361.059 360.063C360.624 360.434 360.118 360.713 359.572 360.882C358.471 361.255 357.267 361.179 356.222 360.671" fill="#4C9ACC"/>
</svg>
